<?xml version="1.0" encoding="iso-8859-1"?>
<!-- Generator: Adobe Illustrator 19.0.0, SVG Export Plug-In . SVG Version: 6.00 Build 0)  -->
<svg version="1.1" id="Capa_1" xmlns="http://www.w3.org/2000/svg" xmlns:xlink="http://www.w3.org/1999/xlink" x="0px" y="0px"
	 viewBox="0 0 485.966 485.966" style="enable-background:new 0 0 485.966 485.966;" xml:space="preserve">
<path style="fill:#627687;" d="M262.984,84.869l-12.523-6.261c-4.265-2.134-9.77-1.679-15.781,1.882
	c-13.544,8.019-24.524,28.772-24.524,46.35c0,9.777,3.397,16.514,8.743,19.188l12.523,6.261c4.264,2.134,9.77,1.68,15.782-1.877
	c13.543-8.023,24.522-28.777,24.522-46.355C271.725,94.279,268.33,87.541,262.984,84.869z"/>
<path style="fill:#424D57;" d="M262.984,84.869c5.346,2.672,8.741,9.409,8.741,19.188c0,17.578-10.979,38.332-24.522,46.355
	c-6.012,3.557-11.518,4.012-15.782,1.877c-5.348-2.673-8.742-9.407-8.742-19.187c0-17.577,10.979-38.331,24.523-46.353
	C253.213,83.192,258.719,82.738,262.984,84.869z"/>
<polygon style="fill:#FFA511;" points="188.03,225.543 188.04,329.236 365.416,430.41 454.494,378.844 454.341,276.374 
	276.695,174.171 "/>
<polygon style="fill:#EB6B24;" points="188.03,225.543 365.26,327.746 365.416,430.41 188.04,329.236 "/>
<polygon style="fill:#9E2D00;" points="454.341,276.374 365.26,327.746 365.416,430.41 454.494,378.844 "/>
<polygon style="fill:#FFFFFF;" points="232.441,251.091 321.104,199.72 409.928,250.821 321.265,302.194 "/>
<polygon style="fill:#E0904A;" points="286.899,186.616 287.048,248.703 324.767,270.359 324.622,208.8 "/>
<polygon style="fill:#BF6A3F;" points="324.622,208.8 362.734,186.44 362.386,248.525 324.767,270.359 "/>
<polygon style="fill:#FFD97D;" points="226.983,79.431 226.815,192.684 324.813,249.452 422.975,192.969 423.146,78.31 
	325.149,22.948 "/>
<polygon style="fill:#E0904A;" points="324.978,136.199 324.813,249.452 422.975,192.969 423.146,78.31 "/>
<path style="fill:#24170C;" d="M432.155,73.208l-106.66-61.765L217.184,73.357l-0.056,39.311c0,0,30.731,19.195,67.964,0.284
	c0,0,8.528,30.219,39.76,54.971l34.587-20.508c-0.004,7.113-0.043,82.178-0.043,82.178l72.854-41.922L432.155,73.208z"/>
<polygon style="fill:#3B2F25;" points="217.184,73.357 324.978,136.199 432.155,73.208 325.495,11.443 "/>
<polygon style="fill:#D6D6D6;" points="232.441,251.091 277.008,379.332 321.265,302.194 "/>
<path style="fill:#627687;" d="M402.622,159.659l-12.523-6.261c-4.264-2.133-9.771-1.68-15.781,1.882
	c-13.545,8.02-24.523,28.772-24.523,46.35c0,9.777,3.396,16.514,8.741,19.189l12.523,6.26c4.265,2.133,9.771,1.679,15.782-1.878
	c13.544-8.023,24.523-28.776,24.523-46.353C411.364,169.068,407.967,162.331,402.622,159.659z"/>
<path style="fill:#424D57;" d="M402.622,159.659c5.346,2.672,8.742,9.409,8.742,19.189c0,17.577-10.979,38.33-24.523,46.353
	c-6.012,3.557-11.518,4.012-15.782,1.878c-5.348-2.674-8.741-9.408-8.741-19.188c0-17.576,10.979-38.33,24.523-46.354
	C392.851,157.983,398.355,157.527,402.622,159.659z"/>
<g>
	<polygon style="fill:#EB3400;" points="257.838,50.141 259.902,48.971 257.838,47.76 	"/>
	<polygon style="fill:#EB3400;" points="376.751,108.379 392.441,99.005 273.531,28.674 273.531,28.331 273.242,28.503 
		265.023,23.641 249.33,32.699 	"/>
</g>
<polygon style="fill:#821D00;" points="376.751,108.379 376.751,164.917 392.441,155.857 392.441,99.005 "/>
<polygon style="fill:#FF5500;" points="249.33,32.699 249.33,54.972 257.838,50.141 257.838,47.76 259.902,48.971 368.241,112.538 
	368.241,160.004 376.751,164.917 376.751,108.379 "/>
<polygon style="fill:#627687;" points="73.297,426.77 156.579,474.852 205.555,446.579 121.746,398.798 "/>
<polygon style="fill:#2E373D;" points="73.297,426.77 73.297,436.827 156.579,485.966 156.579,474.852 "/>
<polygon style="fill:#424D57;" points="156.579,485.966 205.555,456.376 205.555,446.579 156.579,474.852 "/>
<polygon style="fill:#2E373D;" points="49.247,206.649 49.247,368.842 238.063,477.856 238.063,315.659 "/>
<polygon style="fill:#627687;" points="238.063,315.659 252.371,307.234 64.773,198.967 49.247,206.649 "/>
<polygon style="fill:#424D57;" points="238.063,477.856 252.371,468.42 252.371,307.234 238.063,315.659 "/>
<polygon style="fill:#2E373D;" points="93.766,332.227 93.766,388.243 158.971,425.887 158.971,369.874 "/>
<polygon style="fill:#627687;" points="158.971,369.874 166.905,365.507 102.114,328.095 93.766,332.227 "/>
<polygon style="fill:#424D57;" points="158.971,425.887 166.905,421.517 166.905,365.507 158.971,369.874 "/>
<polygon style="fill:#2E373D;" points="107.89,390.52 107.89,435.556 134,450.966 134,405.93 "/>
<polygon style="fill:#424D57;" points="134,450.966 144.848,444.558 144.848,400.467 134,405.93 "/>
<polygon style="fill:#627687;" points="144.848,400.467 117.608,384.741 107.89,390.52 134,405.93 "/>
<path style="fill:#3CA5AF;" d="M166.905,16.517c0-5.915-3.163-11.38-8.292-14.324c-5.131-2.945-11.444-2.923-16.552,0.059
	L51.946,54.857c-12.677,7.404-20.473,20.978-20.473,35.659v60.025c0,6.81,3.642,13.101,9.546,16.492
	c5.907,3.392,13.175,3.365,19.056-0.07l50.803-29.655l28.35,8.591l-12.152-18.047l21.803-12.729
	c11.163-6.518,18.026-18.471,18.026-31.398L166.905,16.517L166.905,16.517z"/>
<g>
	<polygon style="fill:#FFFFFF;" points="143.992,35.773 56.279,87.911 56.279,94.875 143.992,43.018 	"/>
	<polygon style="fill:#FFFFFF;" points="143.992,57.835 56.279,109.974 56.279,116.938 143.992,65.08 	"/>
	<polygon style="fill:#FFFFFF;" points="145.886,78.105 58.172,130.244 58.172,137.207 145.886,85.349 	"/>
</g>
<g>
</g>
<g>
</g>
<g>
</g>
<g>
</g>
<g>
</g>
<g>
</g>
<g>
</g>
<g>
</g>
<g>
</g>
<g>
</g>
<g>
</g>
<g>
</g>
<g>
</g>
<g>
</g>
<g>
</g>
</svg>
