<?xml version="1.0" encoding="iso-8859-1"?>
<!-- Generator: Adobe Illustrator 19.0.0, SVG Export Plug-In . SVG Version: 6.00 Build 0)  -->
<svg version="1.1" id="Capa_1" xmlns="http://www.w3.org/2000/svg" xmlns:xlink="http://www.w3.org/1999/xlink" x="0px" y="0px"
	 viewBox="0 0 471.804 471.804" style="enable-background:new 0 0 471.804 471.804;" xml:space="preserve">
<path style="fill:#3CA5AF;" d="M363.681,14.999c0-5.372-2.872-10.333-7.53-13.007c-4.658-2.675-10.391-2.654-15.03,0.054
	L259.29,49.815c-11.511,6.722-18.59,19.05-18.59,32.381V136.7c0,6.186,3.307,11.898,8.669,14.977
	c5.363,3.08,11.961,3.056,17.304-0.063l46.132-26.929l15.923,17.61l-1.214-26.196l19.8-11.56
	c10.136-5.918,16.368-16.773,16.368-28.51v-61.03H363.681z"/>
<g>
	<polygon style="fill:#FFFFFF;" points="342.876,32.482 263.225,79.829 263.225,86.151 342.876,39.061 	"/>
	<polygon style="fill:#FFFFFF;" points="342.876,52.517 263.225,99.863 263.225,106.186 342.876,59.096 	"/>
	<polygon style="fill:#FFFFFF;" points="344.594,70.924 264.946,118.268 264.946,124.591 344.594,77.501 	"/>
</g>
<path style="fill:#FFA511;" d="M108.125,14.998c0-5.371,2.873-10.333,7.531-13.007s10.391-2.654,15.03,0.054l81.831,47.769
	c11.511,6.722,18.59,19.05,18.59,32.381v54.504c0,6.186-3.307,11.898-8.669,14.977c-5.366,3.08-11.964,3.057-17.304-0.063
	l-46.132-26.929l-15.759,17.61l1.05-26.196l-19.8-11.559c-10.135-5.918-16.368-16.773-16.368-28.51L108.125,14.998L108.125,14.998z"
	/>
<g>
	<polygon style="fill:#FFFFFF;" points="128.93,32.485 208.579,79.829 208.579,86.154 128.93,39.062 	"/>
	<polygon style="fill:#FFFFFF;" points="128.93,52.519 208.579,99.864 208.579,106.187 128.93,59.097 	"/>
	<polygon style="fill:#FFFFFF;" points="127.211,70.925 206.861,118.269 206.861,124.593 127.211,77.502 	"/>
</g>
<polygon style="fill:#FF6600;" points="246.622,308.216 246.622,389.934 387.829,471.804 458.924,430.788 458.924,349.076 
	317.388,267.361 "/>
<polygon style="fill:#EB3400;" points="246.622,308.216 387.829,389.934 387.829,471.804 246.622,389.934 "/>
<polygon style="fill:#821D00;" points="458.924,349.076 387.829,389.934 387.829,471.804 458.924,430.788 "/>
<polygon style="fill:#FFFFFF;" points="282.006,328.648 352.774,287.788 423.54,328.646 352.774,369.506 "/>
<polygon style="fill:#D6D6D6;" points="282.006,328.648 317.388,430.964 352.774,369.506 "/>
<polygon style="fill:#24170C;" points="357.327,141.951 357.327,263.058 292.977,300.211 292.977,179.104 "/>
<polygon style="fill:#524337;" points="292.977,300.211 287.536,297.058 287.536,211.057 292.977,207.802 "/>
<polygon style="fill:#E0904A;" points="325.153,277.258 325.153,326.768 355.191,344.109 355.191,295.018 "/>
<polygon style="fill:#BF6A3F;" points="355.191,295.018 385.229,277.258 385.229,326.768 355.191,344.109 "/>
<polygon style="fill:#FFD97D;" points="276.98,191.97 276.98,282.28 355.191,327.435 433.404,282.28 433.404,190.512 
	355.191,146.815 "/>
<polygon style="fill:#E0904A;" points="355.191,237.123 355.191,327.435 433.404,282.28 433.404,190.512 "/>
<polygon style="fill:#24170C;" points="269.11,187.426 269.11,211.84 355.191,262.421 382.707,245.953 382.707,329.766 
	438.852,297.349 438.852,187.426 355.191,137.642 "/>
<g>
	<polygon style="fill:#524337;" points="269.11,187.426 355.191,237.123 438.852,187.426 355.191,137.642 	"/>
	<polygon style="fill:#524337;" points="382.707,329.766 377.269,326.613 377.269,249.206 382.707,245.953 	"/>
</g>
<polygon style="fill:#3B2F25;" points="355.191,237.123 355.191,262.421 269.11,211.84 269.11,187.426 "/>
<polygon style="fill:#72EEF7;" points="225.184,308.216 225.184,389.934 83.977,471.804 12.881,430.788 12.881,349.076 
	154.417,267.361 "/>
<polygon style="fill:#3CA5AF;" points="225.184,308.216 83.977,389.934 83.977,471.804 225.184,389.934 "/>
<polygon style="fill:#304E75;" points="12.881,349.076 83.977,389.934 83.977,471.804 12.881,430.788 "/>
<polygon style="fill:#FFFFFF;" points="189.8,328.648 119.032,287.788 48.264,328.646 119.032,369.506 "/>
<polygon style="fill:#E0904A;" points="146.652,277.258 146.652,326.768 116.614,344.109 116.614,295.018 "/>
<polygon style="fill:#BF6A3F;" points="116.614,295.018 86.577,277.258 86.577,326.768 116.614,344.109 "/>
<polygon style="fill:#FFD97D;" points="194.826,191.97 194.826,282.28 116.614,327.435 38.401,282.28 38.401,190.654 
	116.614,146.815 "/>
<polygon style="fill:#E0904A;" points="38.401,190.654 38.401,282.28 116.614,327.435 116.614,237.123 "/>
<path style="fill:#9E2D00;" d="M116.614,137.642l-83.662,49.784v91.708l56.146,32.416v-65.598l27.516,16.469
	c24.981-19.633,31.879-43.698,31.882-43.704c29.631,15.201,54.199,0,54.199,0v-31.292L116.614,137.642z"/>
<polygon style="fill:#FFA511;" points="202.695,187.426 116.614,237.123 32.952,187.426 116.614,137.642 "/>
<polygon style="fill:#D6D6D6;" points="189.8,328.648 154.417,430.964 119.032,369.506 "/>
<g>
	<path style="fill:#EB6B24;" d="M148.496,218.718l-31.882,18.406v23.558v1.74C141.595,242.788,148.493,218.723,148.496,218.718z"/>
	<path style="fill:#EB6B24;" d="M202.695,218.718v-31.292l-54.199,31.292C178.127,233.919,202.695,218.718,202.695,218.718z"/>
</g>
<g>
</g>
<g>
</g>
<g>
</g>
<g>
</g>
<g>
</g>
<g>
</g>
<g>
</g>
<g>
</g>
<g>
</g>
<g>
</g>
<g>
</g>
<g>
</g>
<g>
</g>
<g>
</g>
<g>
</g>
</svg>
